HIERARCHY
ROOT Hips
{
  OFFSET 0 0 0
  CHANNELS 6 Xposition Yposition Zposition Zrotation Yrotation Xrotation
  JOINT LeftThigh
  {
    OFFSET 8.409438 0 -5.917753
    CHANNELS 3 Zrotation Yrotation Xrotation
    JOINT LeftLeg
    {
      OFFSET 0 0 -42.358652
      CHANNELS 3 Zrotation Yrotation Xrotation
      JOINT LeftFoot
      {
        OFFSET 0 0 -39.357303
        CHANNELS 3 Zrotation Yrotation Xrotation
      }
    }
  }
  JOINT RightThigh
  {
    OFFSET -8.409438 0 -5.917753
    CHANNELS 3 Zrotation Yrotation Xrotation
    JOINT RightLeg
    {
      OFFSET 0 0 -42.358652
      CHANNELS 3 Zrotation Yrotation Xrotation
      JOINT RightFoot
      {
        OFFSET 0 0 -39.357303
        CHANNELS 3 Zrotation Yrotation Xrotation
      }
    }
  }
  JOINT SpineLow
  {
    OFFSET 0 0 4.719101
    CHANNELS 3 Zrotation Yrotation Xrotation
    JOINT SpineMid
    {
      OFFSET 0 0 12.899191
      CHANNELS 3 Zrotation Yrotation Xrotation
      JOINT Chest
      {
        OFFSET 0 0 12.899191
        CHANNELS 3 Zrotation Yrotation Xrotation
        JOINT LeftShoulder
        {
          OFFSET 7.550562 1.41573 9.438202
          CHANNELS 3 Zrotation Yrotation Xrotation
          JOINT LeftArm
          {
            OFFSET 9.155056 0 4.247191
            CHANNELS 3 Zrotation Yrotation Xrotation
            JOINT LeftForearm
            {
              OFFSET 0 0 25.771955
              CHANNELS 3 Zrotation Yrotation Xrotation
              JOINT LeftHand
              {
                OFFSET 0 0 25.197169
                CHANNELS 3 Zrotation Yrotation Xrotation
              }
            }
          }
        }
        JOINT RightShoulder
        {
          OFFSET -7.550562 1.41573 9.438202
          CHANNELS 3 Zrotation Yrotation Xrotation
          JOINT RightArm
          {
            OFFSET -9.155056 0 4.247191
            CHANNELS 3 Zrotation Yrotation Xrotation
            JOINT RightForearm
            {
              OFFSET 0 0 -25.771955
              CHANNELS 3 Zrotation Yrotation Xrotation
              JOINT RightHand
              {
                OFFSET 0 0 -25.197169
                CHANNELS 3 Zrotation Yrotation Xrotation
              }
            }
          }
        }
        JOINT Neck
        {
          OFFSET 0 0 15.101124
          CHANNELS 3 Zrotation Yrotation Xrotation
          JOINT Head
          {
            OFFSET 0 0 11.325843
            CHANNELS 3 Zrotation Yrotation Xrotation
            End Site
            {
              OFFSET 0 0 14.157303
            }
          }
        }
      }
    }
  }
}
MOTION
Frames: 13
Frame Time: 0.0
0.0  93.25843  0.0  -0.077882  -34.448391  -79.603388  22.264964  -11.024654  -7.784081  2.732739  0.511231  15.611617  6.115703  1.326466  3.649523  3.049563  1.069477  -19.978151  3.458805  8.683194  10.922115  -3.491318  -0.319937  -0.671871  -6.242114  -1.558575  -2.639872  -16.896714  -4.900763  -6.770879  -16.896714  -4.900763  -6.770879  -13.71806  3.609556  14.386192  3.910292  61.396724  51.564453  -22.837318  -14.964916  137.119273  66.67547  -42.602411  24.764767  9.626969  -0.995204  31.555222  58.668571  18.19891  51.998555  -5.212762  -6.22729  -120.808444  59.799676  15.256606  -2.541389  23.527169  4.614656  7.771918  17.580574  3.767545  5.657659  
0.0  93.25843  0.0  0.194873  -34.308532  -79.662357  21.674385  -10.870829  -7.765959  3.302803  0.505107  15.666691  6.06683  1.33147  3.614988  2.972734  1.326755  -20.004683  3.314706  8.707091  10.925386  -3.498453  -0.302827  -0.711956  -6.222725  -1.501826  -2.739685  -16.840407  -4.770187  -7.057648  -16.840408  -4.770187  -7.057648  -14.215961  3.868786  14.393074  5.999324  61.761355  53.409263  -22.624473  -15.840234  136.578861  66.76744  -42.591612  24.992337  9.419326  -1.398863  31.735818  58.840011  18.564567  52.250335  -5.052437  -6.220839  -120.863451  59.762229  15.078273  -2.347272  23.447632  4.715828  8.042541  17.517378  3.852956  5.857355  
0.0  93.25843  0.0  0.366172  -34.262576  -79.717137  20.851478  -10.89301  -7.929318  3.856049  0.511032  15.802238  6.13854  1.382265  3.668347  2.920204  1.502613  -20.015949  3.032802  8.731169  10.869645  -3.406809  -0.293894  -0.720869  -6.202884  -1.453818  -2.785361  -16.786699  -4.649513  -7.19508  -16.786698  -4.649513  -7.19508  -14.401129  4.043399  14.339435  7.791305  61.972193  55.166536  -22.396328  -16.625837  135.964919  67.061633  -42.615042  25.05779  9.404605  -1.629948  31.802238  59.082604  18.696525  52.475916  -4.796315  -6.414038  -120.869429  59.525999  15.00048  -2.293802  23.421733  4.743969  7.998437  17.497772  3.87204  5.823287  
0.0  93.25843  0.0  0.367763  -34.431336  -79.657782  20.658581  -10.960327  -8.006938  4.144022  0.617075  15.918446  6.164101  1.41491  3.644567  3.099194  1.544116  -20.098078  3.055606  8.724057  11.017496  -3.404831  -0.296516  -0.740116  -6.13209  -1.416463  -2.798235  -16.595398  -4.544084  -7.244568  -16.595397  -4.544083  -7.244567  -14.557144  4.03055  14.438218  8.111996  62.247044  55.512445  -22.279679  -16.962232  135.534348  67.172424  -42.664753  25.088808  9.489426  -1.806605  31.743883  59.218795  18.603585  52.694358  -4.584982  -6.764169  -120.8649  59.311999  14.920892  -2.322484  23.341836  4.634447  7.701279  17.441758  3.777228  5.605077  
0.0  93.25843  0.0  0.309394  -34.327526  -79.617324  20.638761  -11.05678  -7.898341  3.89235  0.800462  15.769279  6.158037  1.39679  3.575524  2.721838  1.404683  -20.28869  2.965157  8.852478  11.147677  -2.898112  -0.296509  -0.627026  -6.102529  -1.389373  -2.782735  -16.518091  -4.463719  -7.211184  -16.518091  -4.463719  -7.211184  -14.55177  3.927443  14.435586  7.673507  62.513783  55.298966  -22.317582  -17.014022  135.2935  67.218905  -42.774942  24.863161  9.282948  -1.96912  31.490558  59.858885  18.49897  53.327839  -4.523847  -7.15194  -120.860618  59.154228  14.902801  -2.320341  23.334627  4.464766  7.225691  17.442262  3.631368  5.254746  
0.0  93.25843  0.0  0.366917  -34.363239  -79.778331  20.694663  -11.124089  -7.829201  3.647665  0.916555  15.843562  6.216568  1.429765  3.567732  2.531052  1.390672  -20.318191  3.01914  8.902881  11.46608  -2.863137  -0.308346  -0.649623  -6.062914  -1.341415  -2.746639  -16.416582  -4.320707  -7.127475  -16.416582  -4.320708  -7.127476  -14.4649  3.815808  14.327118  6.735089  62.763827  54.639762  -22.417008  -16.722487  135.216915  67.21058  -42.905192  24.559025  9.456567  -1.947  31.390127  60.151315  18.339417  53.495532  -4.602314  -7.319916  -120.822622  59.117684  14.819342  -2.224938  23.347216  4.186156  6.676807  17.459411  3.401102  4.853519  
0.0  93.25843  0.0  0.430443  -34.394366  -80.029073  21.643462  -11.002101  -7.248316  2.998413  0.970247  15.652365  5.794729  1.378186  3.22151  2.077784  1.31594  -20.371337  3.154321  9.029751  11.842003  -2.673749  -0.367149  -0.621425  -6.004476  -1.275942  -2.684063  -16.266843  -4.121915  -6.97712  -16.266844  -4.121916  -6.97712  -14.434572  3.614378  14.094416  5.480485  63.012042  53.7839  -22.432055  -16.06708  134.904207  67.258918  -43.28865  24.612372  9.487912  -2.001008  31.220145  60.499213  18.361952  53.653796  -4.697307  -7.432902  -120.785315  59.160237  14.712543  -2.027637  23.286372  3.855031  6.086897  17.421896  3.129024  4.4239  
0.0  93.25843  0.0  0.638076  -34.333265  -80.416475  21.969196  -10.916166  -7.029831  2.574368  0.998  15.70453  5.755398  1.385727  3.202381  1.526414  1.330064  -20.271072  3.180049  9.183795  12.146854  -2.521001  -0.401549  -0.623682  -5.974602  -1.206465  -2.643103  -16.193857  -3.920567  -6.884276  -16.193857  -3.920567  -6.884276  -14.323212  3.616929  13.952214  3.904991  63.174121  52.545825  -22.564758  -15.673866  135.014094  67.34734  -43.370029  24.472496  9.628744  -1.911801  31.212247  60.959798  18.411289  53.761793  -4.919149  -7.444188  -120.773151  59.334158  14.59212  -1.721053  23.267471  3.515433  5.683662  17.414276  2.858253  4.134451  
0.0  93.25843  0.0  0.769393  -34.255616  -80.825559  22.406912  -10.988621  -6.678068  2.258827  1.087509  15.767358  5.640111  1.399757  3.148896  0.883326  1.245893  -20.053686  3.436659  9.325783  12.46481  -2.535676  -0.481087  -0.675926  -5.931962  -1.139208  -2.591577  -16.086297  -3.721487  -6.76286  -16.086299  -3.721487  -6.76286  -14.308791  3.704657  13.783147  2.463981  63.315793  51.331005  -22.772247  -15.821799  135.590911  67.416139  -43.124831  24.002726  9.723999  -1.845717  31.164805  61.385131  18.528096  53.806706  -5.18286  -7.439123  -120.792088  59.613248  14.307114  -1.412333  23.134055  3.187822  5.38076  17.319645  2.599299  3.92034  
0.0  93.25843  0.0  1.017039  -33.979752  -81.197778  22.395325  -10.957254  -6.516129  2.007046  1.195625  15.854374  5.581781  1.401076  3.1053  0.023921  1.21148  -19.907115  3.520733  9.536781  12.650488  -2.314884  -0.546749  -0.660261  -5.943488  -1.084426  -2.566294  -16.123967  -3.567957  -6.706367  -16.123966  -3.567957  -6.706368  -14.206304  4.011387  13.619948  1.274988  63.395296  50.240954  -22.939821  -16.024922  135.723086  67.362777  -43.070167  23.833376  10.039977  -1.759472  31.205381  61.796134  18.76696  53.850672  -5.374099  -7.320284  -120.796506  59.893226  14.009928  -1.022358  23.100981  2.981  5.228485  17.297879  2.437829  3.814107  
0.0  93.25843  0.0  1.15285  -33.637228  -81.545155  22.195572  -11.113102  -6.370146  1.897703  1.359104  16.008145  5.537737  1.411165  3.060511  -0.963413  1.05439  -19.717722  3.972899  9.664589  12.957021  -2.230703  -0.591808  -0.718265  -6.017495  -1.053375  -2.554705  -16.329529  -3.48817  -6.677843  -16.329528  -3.48817  -6.677843  -13.619317  4.557162  13.549065  0.724338  63.533628  49.702043  -23.087962  -16.534633  136.087295  67.426001  -42.785337  23.564257  10.604755  -1.692018  31.266566  62.245861  18.985899  53.898736  -5.516462  -7.224066  -120.797272  60.21209  13.491855  -0.658019  23.232261  2.838645  5.247842  17.397835  2.332791  3.833597  
0.0  93.25843  0.0  1.331452  -33.032506  -81.815825  21.668905  -11.240906  -6.384131  1.76938  1.586795  16.175518  5.507542  1.423712  3.001355  -2.103628  1.001162  -19.581422  4.141776  9.778559  13.124621  -2.061502  -0.638917  -0.728849  -6.033698  -1.003624  -2.539003  -16.378901  -3.351003  -6.646192  -16.378901  -3.351003  -6.646192  -13.821851  4.98609  13.306435  0.625809  63.79663  49.537431  -23.171755  -16.987386  135.946166  67.389538  -42.565832  23.67965  10.77872  -1.701886  31.362568  62.610605  19.308618  53.771964  -5.699751  -7.088344  -120.74466  60.498232  13.001326  -0.15733  23.06733  2.769837  5.25053  17.2749  2.279719  3.83894  
0.0  93.25843  0.0  1.419214  -32.29748  -82.016525  21.166601  -11.466076  -6.412024  1.67968  1.857104  16.400863  5.38034  1.419517  2.88737  -3.163114  0.927315  -19.422241  4.152584  9.863638  13.252404  -2.021874  -0.701442  -0.769233  -6.094423  -0.977848  -2.525984  -16.547745  -3.283796  -6.613624  -16.547744  -3.283796  -6.613625  -13.671713  5.472518  13.161289  0.509602  64.190985  49.398264  -23.264195  -17.811356  136.17206  67.389879  -41.852215  23.522882  11.158474  -1.708376  31.514078  62.943361  19.619272  53.514106  -5.953193  -6.916531  -120.652316  60.833882  12.398123  0.351766  22.989798  2.724515  5.294565  17.217082  2.246638  3.874063  
